<svg id="esBQZUcNaxS1" xmlns="http://www.w3.org/2000/svg" xmlns:xlink="http://www.w3.org/1999/xlink" viewBox="0 0 300 300" shape-rendering="geometricPrecision" text-rendering="geometricPrecision"><ellipse rx="71.9513" ry="71.9513" transform="matrix(.994517 0 0 0.994517 150.288 150)" fill="#ffe97f" stroke-width="0"/><ellipse rx="71.9513" ry="71.9513" transform="matrix(.781818 0 0 0.781818 150.288 149.51)" fill="#292929" stroke-width="0"/><ellipse rx="71.9513" ry="71.9513" transform="matrix(.711008 0 0 0.711008 150.288 149.51)" fill="rgba(41,41,41,0)" stroke="#fff" stroke-width="4" stroke-linecap="round" stroke-linejoin="bevel" stroke-dashoffset="9.86667" stroke-dasharray="40,200"/><ellipse rx="78.3327" ry="6.78595" transform="matrix(1.47072 0 0 0.914821 150 149.51)" fill="#ffe97f" stroke="rgba(255,233,127,0)"/><path d="M86.923521,143.33462c0,0-40.222686.536688-48.303581.536688c8.719232-1.240378,34.645454-3.072894,41.8173-26.927984-9.016456,22.449136,6.486281,26.391296,6.486281,26.391296Z" transform="translate(6.602582 5.638312)" fill="#ffe97f" stroke="#ffe97f" stroke-width="5" stroke-linecap="round" stroke-linejoin="round"/><path d="M86.923521,143.33462c0,0-40.222686.536688-48.303581.536688c8.719232-1.240378,34.645454-3.072894,41.8173-26.927984-9.016456,22.449136,6.486281,26.391296,6.486281,26.391296Z" transform="matrix(-1 0 0 1 294.237 5.638312)" fill="#ffe97f" stroke="#ffe97f" stroke-width="5" stroke-linecap="round" stroke-linejoin="round"/></svg>
