<?xml version="1.0" standalone="no"?>
<!DOCTYPE svg PUBLIC "-//W3C//DTD SVG 20010904//EN"
 "http://www.w3.org/TR/2001/REC-SVG-20010904/DTD/svg10.dtd">
<svg version="1.0" xmlns="http://www.w3.org/2000/svg"
 width="768.000000pt" height="757.000000pt" viewBox="0 0 768.000000 757.000000"
 preserveAspectRatio="xMidYMid meet">

<g transform="translate(0.000000,757.000000) scale(0.100000,-0.100000)"
fill="#fff" stroke="white" stroke-width="10px">
<path d="M3405 7389 c-4 -11 -4 -178 0 -370 l8 -349 -96 0 c-82 0 -102 4 -145
25 -54 27 -112 32 -176 14 -44 -12 -118 -77 -135 -117 -13 -30 -133 -107 -155
-99 -6 3 -40 54 -75 113 -167 285 -323 544 -328 544 -4 0 -27 -13 -52 -29 -25
-16 -175 -104 -333 -196 -159 -92 -288 -171 -288 -176 0 -7 272 -472 371 -636
l19 -31 -64 -36 c-84 -47 -149 -50 -187 -8 -15 16 -26 41 -28 61 -2 42 -21 69
-104 149 -49 47 -72 62 -94 62 -19 0 -39 10 -58 30 -21 22 -32 27 -44 20 -11
-6 -22 -3 -38 12 l-22 21 -71 -68 c-73 -71 -80 -84 -56 -105 8 -6 12 -18 9
-26 -3 -8 5 -26 18 -40 15 -16 23 -35 21 -49 -5 -39 24 -86 97 -159 58 -58 74
-68 112 -73 52 -7 71 -29 80 -93 5 -39 2 -53 -29 -108 -25 -45 -39 -62 -50
-57 -8 3 -156 89 -329 190 -173 102 -317 185 -322 185 -10 0 -403 -668 -405
-688 -1 -11 106 -79 321 -207 177 -105 325 -194 329 -197 3 -4 -14 -41 -37
-83 -36 -64 -51 -81 -87 -97 -117 -56 -164 -193 -104 -310 24 -48 27 -63 24
-136 l-3 -82 -383 0 -383 0 -6 -152 c-4 -83 -7 -261 -7 -395 l0 -243 390 0
390 0 0 -84 c0 -78 -2 -89 -31 -130 -36 -54 -69 -66 -109 -42 -38 22 -51 21
-162 -14 -75 -23 -102 -37 -122 -61 -14 -17 -26 -34 -26 -38 0 -5 -15 -12 -32
-17 -23 -7 -34 -17 -36 -32 -2 -14 -10 -22 -22 -22 -32 0 -32 -18 0 -116 31
-91 33 -95 57 -89 14 3 31 1 37 -5 9 -7 23 -7 45 1 25 9 38 8 64 -4 36 -17 52
-15 172 22 78 24 94 34 119 73 26 39 59 43 121 13 47 -22 59 -34 90 -89 19
-34 35 -67 35 -72 0 -5 -151 -99 -335 -209 -184 -110 -335 -204 -335 -210 0
-21 406 -685 418 -685 8 0 160 88 339 195 178 107 326 195 328 195 2 0 20 -29
41 -65 23 -43 34 -73 31 -87 -10 -35 12 -114 43 -156 18 -25 50 -50 84 -67 47
-23 65 -27 114 -23 53 5 62 3 135 -39 l77 -45 -19 -31 c-167 -276 -381 -651
-375 -657 15 -12 665 -390 672 -390 4 0 46 67 94 148 216 367 309 522 313 522
2 0 27 -14 55 -32 32 -20 59 -46 71 -69 39 -77 133 -139 210 -139 29 0 110 30
140 53 24 17 41 20 106 18 43 -1 79 -4 81 -6 2 -1 3 -174 2 -384 l0 -381 395
0 395 0 0 243 c0 133 3 306 7 385 l6 142 77 0 c60 0 81 -4 91 -17 42 -50 169
-68 244 -34 43 19 109 85 120 120 9 30 156 114 171 98 11 -12 49 -76 273 -454
56 -95 105 -173 110 -173 4 0 111 61 237 136 126 75 275 164 332 198 56 33
102 63 102 67 0 3 -84 149 -186 322 -102 174 -183 321 -180 325 15 25 130 82
165 82 43 0 96 -45 86 -73 -23 -59 182 -255 234 -223 5 4 23 -5 39 -19 18 -15
36 -23 46 -19 9 4 24 -1 34 -9 21 -19 24 -16 105 69 l57 61 -20 25 c-10 14
-16 28 -13 32 4 3 -6 19 -20 34 -15 16 -25 31 -21 34 16 16 -13 74 -63 129
-71 76 -107 102 -148 104 -18 1 -47 12 -64 24 -44 32 -43 83 4 168 20 34 41
63 47 63 7 0 162 -84 346 -186 260 -145 336 -183 343 -173 8 13 103 182 307
548 45 80 79 148 76 152 -2 4 -35 24 -72 45 -106 58 -587 327 -591 330 -2 2
13 32 32 66 30 55 43 67 86 87 136 61 182 224 98 345 -19 27 -22 57 -17 193 0
9 103 12 423 12 l422 1 4 22 c2 13 0 191 -4 395 l-7 373 -422 2 -421 3 -2 70
c-1 54 3 75 18 96 10 14 23 38 29 53 13 36 54 51 103 36 42 -12 50 -11 159 32
77 30 128 68 128 94 0 8 16 20 35 28 23 10 35 22 35 34 0 11 11 24 26 31 14 6
24 17 21 24 -15 38 -71 173 -74 176 -2 2 -14 -1 -27 -7 -16 -7 -27 -7 -34 0
-7 7 -22 6 -47 -2 -27 -9 -40 -9 -48 -1 -20 20 -80 12 -162 -20 -82 -33 -130
-67 -141 -102 -3 -10 -20 -25 -37 -32 -47 -20 -85 3 -125 75 -17 32 -32 63
-32 69 0 5 144 96 320 202 239 143 319 196 315 207 -13 34 -408 682 -415 682
-5 0 -144 -82 -310 -181 -166 -100 -310 -183 -319 -186 -28 -7 -81 105 -85
180 -6 134 -91 219 -223 223 -50 1 -73 8 -127 38 -36 20 -66 41 -66 46 0 5 83
151 185 324 102 173 185 318 185 324 0 10 -649 402 -667 402 -8 0 -195 -307
-372 -612 -9 -16 -20 -28 -25 -28 -6 0 -40 18 -77 40 -46 27 -70 49 -79 71
-21 51 -60 90 -115 115 -76 36 -159 29 -227 -18 -20 -14 -44 -18 -102 -18
l-76 0 -1 183 c0 100 -2 261 -5 357 -2 96 -4 181 -4 188 0 9 -84 12 -389 12
-386 0 -390 0 -396 -21z m779 -665 c3 -371 4 -679 1 -685 -4 -5 -132 -9 -311
-9 l-304 0 -75 55 -75 56 0 629 0 630 378 0 379 0 7 -676z m-1847 351 l32 -55
-22 -14 c-50 -32 -630 -366 -636 -366 -3 0 -19 23 -35 51 -24 43 -26 53 -15
64 15 14 631 375 639 375 3 0 19 -25 37 -55z m3300 -183 c155 -92 282 -173
283 -180 0 -10 -40 -82 -56 -101 -1 -1 -74 38 -161 89 -87 51 -233 136 -325
189 -92 53 -167 100 -168 105 0 5 14 33 31 62 l31 54 41 -25 c23 -14 169 -101
324 -193z m-3211 32 c163 -272 564 -953 564 -958 0 -2 -117 -75 -260 -161
l-261 -156 -89 7 c-63 5 -93 11 -103 23 -7 9 -59 93 -114 186 -374 634 -445
757 -442 759 2 2 133 78 290 169 158 91 302 175 320 186 19 12 38 19 44 18 5
-2 28 -35 51 -73z m3127 -154 c233 -135 297 -176 292 -189 -9 -24 -586 -1004
-599 -1019 -10 -10 -67 19 -276 140 l-263 153 -34 78 c-18 44 -33 85 -33 92 0
7 82 152 183 322 100 169 225 381 277 470 l95 162 30 -18 c17 -9 164 -95 328
-191z m-938 -84 c21 -11 53 -40 69 -64 41 -58 49 -158 17 -219 -23 -46 -63
-83 -111 -103 -31 -13 -41 -11 -134 21 -110 37 -136 57 -154 117 -18 60 -15
93 16 153 58 114 185 155 297 95z m-1440 -10 c48 -25 100 -99 108 -152 8 -48
-6 -109 -31 -143 -25 -35 -204 -104 -247 -96 -95 17 -172 154 -145 257 37 139
188 203 315 134z m1130 -71 c-29 -56 -34 -135 -10 -192 8 -19 15 -37 15 -40 0
-2 -24 -3 -52 -1 l-53 3 -3 137 -3 137 63 3 c35 2 64 2 66 2 1 -1 -9 -23 -23
-49z m-895 -95 l0 -140 -70 0 c-38 0 -70 2 -70 4 0 2 7 20 15 39 23 56 19 116
-13 181 l-29 56 84 0 83 0 0 -140z m-541 -133 c12 -20 36 -48 53 -62 17 -14
29 -27 27 -29 -2 -2 -25 -15 -50 -29 l-45 -27 -63 106 c-35 59 -65 114 -68
123 -3 11 13 26 54 48 l58 32 6 -63 c3 -39 14 -76 28 -99z m1937 122 c29 -16
56 -34 58 -38 4 -6 -69 -138 -120 -218 l-14 -23 -53 32 c-28 17 -54 33 -56 35
-3 2 12 18 33 35 45 37 86 118 86 171 0 20 3 37 6 37 4 0 31 -14 60 -31z
m-3405 -145 c12 -14 6 -24 -49 -75 -66 -62 -79 -69 -89 -43 -4 10 13 35 53 75
32 32 61 59 65 59 4 0 13 -7 20 -16z m2009 -109 l0 -115 83 -61 82 -61 100 6
c55 3 196 6 313 6 l212 0 0 170 0 170 66 0 c63 0 65 -1 59 -22 -4 -13 -8 -27
-9 -33 -1 -10 147 -72 195 -82 24 -5 29 -2 35 21 10 41 43 42 108 6 31 -18 58
-36 61 -40 3 -4 -18 -47 -46 -95 l-51 -86 23 -57 c52 -131 34 -115 330 -287
149 -86 274 -153 279 -148 4 4 40 64 80 133 40 69 74 127 76 129 1 1 30 -12
63 -30 62 -34 74 -55 46 -79 -8 -7 -15 -17 -15 -22 0 -18 143 -168 160 -168
10 0 23 7 30 15 23 28 45 16 77 -43 l32 -58 -134 -79 c-74 -44 -135 -83 -135
-87 0 -5 406 -687 415 -697 2 -1 61 31 130 73 69 42 128 76 130 76 2 0 17 -22
34 -50 38 -61 34 -103 -10 -126 -29 -15 -29 -15 -13 -52 8 -20 29 -69 45 -109
29 -69 32 -72 55 -62 14 5 27 9 30 9 2 0 4 -25 4 -55 l0 -55 -62 0 -63 0 -77
-77 -78 -78 0 -67 c0 -38 -3 -68 -6 -68 -3 0 -19 14 -34 30 l-28 30 -247 0
-247 0 -28 -30 c-22 -24 -36 -30 -68 -30 -32 0 -47 7 -70 30 l-30 30 -241 0
-240 0 -34 -30 c-29 -25 -43 -30 -85 -30 -43 0 -52 3 -57 21 -12 37 -63 49
-215 49 l-140 0 -49 98 c-27 53 -69 124 -93 157 -53 70 -166 195 -178 195 -4
0 -11 -16 -14 -35 -7 -34 -7 -35 -31 -19 -20 13 -25 25 -25 60 0 37 -3 44 -20
44 -14 0 -20 7 -20 21 0 18 9 15 101 -32 100 -53 101 -54 202 -181 l102 -128
100 0 c69 1 115 6 150 19 l50 17 22 160 c22 164 29 279 16 287 -14 8 -561 147
-579 147 -10 0 -32 -13 -49 -29 l-30 -29 -187 -5 -187 -5 -41 30 -40 30 -238
-56 c-130 -31 -259 -62 -287 -68 l-50 -13 -3 -65 c-3 -59 22 -320 34 -363 3
-10 31 -29 61 -42 46 -21 72 -25 147 -25 l92 0 99 130 c98 128 102 131 192
180 99 54 113 58 113 35 0 -8 -7 -15 -15 -15 -11 0 -15 -12 -15 -45 0 -38 -4
-47 -22 -54 -28 -11 -38 -6 -38 20 0 10 -4 19 -9 19 -13 0 -145 -143 -203
-220 -27 -36 -68 -102 -90 -147 l-41 -83 -123 0 c-123 0 -123 0 -157 -30 -28
-24 -44 -30 -81 -30 -32 0 -48 -5 -52 -15 -4 -8 -15 -15 -25 -15 -17 0 -19 -9
-19 -105 0 -96 2 -105 19 -105 10 0 21 -9 24 -20 4 -17 14 -20 61 -20 36 0 58
-5 63 -14 17 -29 54 -36 181 -36 l130 0 22 -56 c29 -70 108 -202 151 -252 103
-119 134 -152 140 -152 4 0 11 15 14 33 10 45 13 48 35 34 16 -9 20 -23 20
-64 0 -46 3 -53 20 -53 13 0 20 -7 20 -20 0 -11 -2 -20 -5 -20 -3 0 -49 22
-103 49 -96 48 -99 51 -181 157 -134 174 -121 164 -217 164 -66 0 -93 -5 -140
-26 -33 -14 -60 -27 -62 -29 -9 -8 -42 -299 -42 -366 l0 -76 188 -46 c103 -25
233 -55 289 -68 l101 -23 41 27 c40 27 42 27 226 27 l185 0 39 -35 40 -36 53
15 c29 8 152 40 273 70 121 31 230 60 243 66 19 8 22 17 22 66 0 76 -39 366
-51 381 -21 25 -103 43 -196 43 l-93 0 -102 -128 c-101 -126 -105 -130 -200
-181 -88 -47 -98 -50 -98 -31 0 11 7 20 15 20 11 0 15 13 15 53 0 48 3 55 25
65 23 11 25 9 33 -20 4 -17 12 -33 17 -34 13 -3 166 168 223 248 24 35 60 96
79 136 l34 72 149 0 c137 0 152 2 170 20 31 31 122 28 162 -5 l31 -26 244 3
c240 3 245 3 263 26 26 32 113 32 148 0 23 -23 28 -23 267 -23 239 0 244 0
267 23 14 12 32 22 41 22 15 0 17 -14 17 -110 l0 -110 93 -1 c50 0 111 -1 135
-1 l42 0 0 -80 0 -79 -37 3 -38 3 -34 -105 c-31 -96 -32 -105 -16 -115 52 -31
52 -27 6 -104 l-42 -72 -77 43 c-42 23 -99 55 -126 70 -27 16 -52 26 -56 21
-12 -12 -390 -695 -390 -703 0 -4 54 -38 120 -75 l121 -67 -30 -51 c-32 -56
-66 -72 -91 -43 -7 9 -18 16 -25 16 -14 0 -155 -153 -155 -168 0 -5 9 -17 20
-27 11 -10 20 -24 20 -31 0 -13 -77 -64 -97 -64 -6 0 -46 61 -89 135 -43 75
-83 134 -89 133 -6 -2 -131 -73 -277 -158 l-267 -154 -36 -86 c-19 -47 -35
-89 -35 -94 0 -5 23 -49 51 -98 42 -72 49 -92 38 -99 -55 -37 -120 -69 -128
-65 -4 3 -11 20 -15 37 -4 19 -11 29 -18 27 -7 -3 -59 -15 -116 -28 l-102 -23
2 -36 3 -36 -77 -3 -77 -3 -3 153 -3 153 -315 3 -315 2 -77 -56 -78 -56 0 -99
0 -99 -78 0 c-43 0 -81 3 -84 6 -4 3 -2 19 2 35 l9 29 -112 35 c-111 34 -126
34 -127 -1 0 -6 -7 -17 -15 -24 -12 -10 -24 -7 -62 15 -27 16 -49 29 -51 30
-2 2 29 56 68 122 38 66 70 124 70 129 0 5 -120 81 -266 168 l-266 159 -101
-9 -102 -9 -44 -77 -45 -77 -57 31 c-32 18 -68 40 -81 49 l-23 18 23 24 22 23
-76 82 c-42 45 -81 82 -87 82 -6 0 -20 -9 -32 -20 -29 -27 -45 -19 -78 40
l-28 49 39 23 c21 13 47 28 57 35 11 7 43 26 70 42 28 17 56 35 64 40 10 7
-33 86 -194 355 -115 190 -213 346 -219 346 -6 0 -59 -29 -118 -65 l-108 -64
-40 69 c-22 38 -40 76 -40 85 0 9 13 21 31 27 16 6 28 15 26 22 -3 6 -19 56
-36 111 -18 55 -34 101 -35 103 -2 1 -15 -2 -30 -7 l-26 -11 0 75 0 75 165 0
165 0 2 248 c2 136 3 279 4 317 l1 70 -76 78 -76 77 -92 0 -93 0 0 71 0 71 38
-7 38 -6 33 111 c19 61 32 112 30 113 -2 2 -16 8 -31 15 -16 6 -28 19 -28 28
0 8 18 46 40 84 l40 69 121 -71 c87 -51 123 -68 131 -60 21 21 407 686 402
693 -2 4 -56 38 -119 74 -63 37 -117 70 -119 74 -7 10 54 111 67 111 6 0 21
-10 34 -22 l24 -22 79 79 c44 44 80 84 80 89 0 5 -9 20 -21 32 l-21 22 38 25
c22 13 53 31 69 40 l30 15 43 -73 c23 -40 48 -78 55 -83 7 -6 53 -15 102 -20
l90 -10 195 116 c107 63 230 136 273 161 42 25 77 48 77 51 0 5 -99 175 -143
247 -4 7 17 25 49 43 48 27 61 30 81 21 13 -6 28 -22 35 -36 6 -14 16 -25 21
-25 6 0 55 16 110 36 l99 37 -6 32 c-4 17 -3 34 1 38 3 4 39 7 80 7 l73 0 0
-115z m-1927 65 c-5 -3 -45 -41 -90 -84 -71 -68 -85 -77 -98 -66 -9 7 -15 18
-13 25 2 6 40 47 86 89 81 75 84 77 103 60 11 -10 16 -20 12 -24z m2968 -2
c49 -18 89 -37 89 -43 -1 -34 -17 -34 -110 0 -51 20 -95 37 -97 39 -7 6 9 36
19 36 6 0 51 -15 99 -32z m-1207 7 c6 -18 -8 -26 -113 -65 -78 -29 -80 -29
-86 -9 -4 11 -5 22 -3 24 8 8 164 64 179 64 9 1 19 -6 23 -14z m-1603 -92
c115 -115 116 -148 11 -250 -74 -71 -120 -97 -157 -87 -14 3 -59 42 -100 86
-69 73 -75 83 -75 122 0 38 5 47 68 107 131 128 145 129 253 22z m472 -299
c26 -44 47 -85 47 -90 0 -9 -100 -68 -104 -62 -2 2 -8 29 -15 60 -13 60 -72
140 -111 153 -30 10 -25 18 37 52 l57 31 21 -31 c12 -18 42 -68 68 -113z
m3503 95 c63 -36 71 -45 44 -54 -58 -18 -130 -123 -130 -188 l0 -28 -42 26
c-24 14 -49 30 -57 34 -11 7 -1 32 53 125 37 64 70 116 73 116 3 0 30 -14 59
-31z m-3855 5 c11 -14 2 -26 -71 -95 -87 -80 -104 -90 -114 -64 -3 9 17 35 57
72 33 32 70 68 82 80 24 27 29 28 46 7z m122 -35 c83 -23 147 -110 147 -201
l0 -53 -84 -84 -84 -84 -60 5 c-111 8 -183 82 -190 196 l-5 66 89 83 c96 88
109 94 187 72z m3950 -29 c82 -26 139 -107 139 -199 0 -123 -87 -213 -209
-215 l-53 0 -83 82 -82 82 1 53 c1 104 71 187 174 207 36 7 65 5 113 -10z
m-4658 -167 c673 -393 723 -424 728 -445 4 -12 12 -63 18 -114 l12 -92 -110
-189 -111 -188 -65 -21 c-35 -12 -87 -27 -115 -34 l-50 -13 -353 208 c-195
114 -423 248 -506 297 -84 50 -153 94 -153 99 0 8 324 564 377 647 8 13 20 22
26 19 7 -2 143 -81 302 -174z m5725 -190 c107 -179 196 -331 197 -337 2 -6
-181 -120 -405 -254 -224 -134 -454 -272 -513 -307 l-105 -64 -95 34 c-51 19
-99 35 -104 35 -8 0 -218 341 -241 390 -1 3 10 56 24 118 l27 112 500 300
c275 165 505 300 510 300 6 -1 98 -147 205 -327z m-5218 -4 c22 -15 63 -33 93
-39 l53 -11 -25 -45 c-14 -24 -26 -44 -28 -44 -4 0 -228 130 -234 135 -2 2 11
29 29 60 l32 56 21 -42 c11 -22 38 -54 59 -70z m377 98 c8 -11 -6 -30 -65 -87
-71 -69 -76 -72 -92 -56 -16 16 -13 21 54 86 40 39 76 70 82 70 5 0 15 -6 21
-13z m3614 -169 c-13 -15 -19 -16 -28 -6 -6 7 -38 41 -70 75 -49 54 -56 65
-45 78 12 14 22 7 86 -56 70 -69 73 -74 57 -91z m344 94 l32 -59 -114 -66
c-62 -37 -117 -67 -122 -67 -4 0 -20 23 -35 50 l-28 50 28 0 c64 0 169 73 187
130 3 11 9 20 13 20 4 0 21 -26 39 -58z m-4041 -298 c24 -14 44 -27 44 -29 0
-2 -17 -32 -37 -67 l-38 -63 -12 75 c-14 87 -15 110 -7 110 3 0 25 -12 50 -26z
m3684 -21 c0 -22 -35 -173 -40 -173 -11 0 -73 111 -66 118 12 12 90 61 99 61
4 1 7 -2 7 -6z m-4422 -480 c137 -80 131 -71 92 -140 -18 -32 -34 -60 -35 -61
-2 -2 -21 15 -42 39 -45 50 -103 78 -160 79 -24 0 -43 3 -43 6 0 14 73 134 82
134 5 0 53 -26 106 -57z m5731 32 c29 -15 41 -34 85 -144 33 -83 33 -113 -1
-150 -32 -35 -166 -91 -217 -91 -47 0 -77 35 -116 135 -55 143 -43 171 100
229 96 40 110 42 149 21z m135 -98 c21 -56 38 -106 37 -112 -1 -5 -10 -13 -21
-17 -15 -5 -22 4 -40 55 -13 34 -33 84 -46 111 -19 38 -21 52 -12 58 32 20 44
6 82 -95z m56 22 c27 -67 31 -82 19 -90 -8 -5 -17 -9 -20 -9 -11 0 -71 158
-64 169 16 26 35 5 65 -70z m-671 21 c17 -28 31 -52 31 -54 0 -2 -23 -6 -51
-10 -66 -9 -118 -35 -158 -81 -18 -21 -34 -36 -35 -34 -2 2 -15 23 -30 46
l-26 43 37 24 c72 46 188 115 195 116 3 0 20 -23 37 -50z m-2174 -93 l280 -72
3 -58 3 -58 -151 6 -150 6 -166 70 -167 70 -216 -6 -216 -6 -150 -64 -150 -65
-153 0 -153 0 3 52 c3 52 3 52 43 61 22 5 142 34 267 63 125 30 236 54 247 54
11 0 33 -11 49 -25 30 -25 32 -25 224 -25 l194 0 34 35 c19 19 36 35 39 34 4
0 132 -33 286 -72z m-2655 -31 c-18 -31 -35 -56 -40 -56 -11 0 -99 50 -105 60
-4 7 166 61 173 55 2 -2 -11 -28 -28 -59z m-513 39 c58 -17 127 -83 137 -131
4 -19 -5 -65 -27 -134 -32 -102 -35 -106 -76 -129 -87 -48 -215 -20 -272 60
-93 131 -29 302 126 340 46 11 57 10 112 -6z m5440 -21 c29 -22 103 -190 103
-234 0 -39 -41 -101 -88 -135 -39 -27 -52 -30 -117 -30 -101 0 -117 14 -173
144 l-44 104 17 43 c18 49 82 109 130 124 49 15 142 6 172 -16z m121 -96 c35
-88 41 -112 30 -119 -7 -5 -16 -9 -19 -9 -8 0 -89 199 -89 217 0 10 14 20 30
22 3 0 25 -50 48 -111z m-750 68 c40 -14 77 -28 83 -32 7 -4 -9 -18 -37 -35
-38 -22 -52 -26 -60 -16 -15 16 -67 107 -62 107 3 0 37 -11 76 -24z m-1893
-52 l84 -36 -36 -72 c-19 -39 -36 -72 -37 -73 -1 -1 -44 20 -96 47 l-95 49
-120 0 -120 1 -93 -50 -92 -49 -36 71 c-19 39 -32 74 -27 78 4 5 40 22 78 38
l70 31 218 0 219 1 83 -36z m-660 -110 c20 -37 34 -71 33 -76 -2 -5 -48 -29
-103 -53 l-100 -44 -3 52 c-2 29 -1 71 3 93 5 39 9 43 63 67 31 14 60 26 64
26 3 1 23 -29 43 -65z m830 39 l65 -27 1 -60 c0 -34 2 -74 4 -89 4 -26 2 -28
-21 -23 -14 4 -63 24 -110 46 l-85 39 38 71 c21 38 39 70 40 70 2 0 32 -12 68
-27z m-2895 -17 c0 -6 -12 -50 -26 -98 -21 -68 -31 -88 -45 -88 -10 0 -20 4
-23 8 -3 5 9 52 26 104 26 80 34 94 50 90 10 -2 18 -9 18 -16z m1788 -12 l92
-7 0 -87 c0 -58 -4 -91 -12 -97 -19 -14 -230 -105 -234 -100 -6 6 -34 225 -34
264 0 33 0 33 48 33 27 0 90 -3 140 -6z m732 -14 c0 -19 -7 -20 -90 -20 -72 0
-90 3 -90 14 0 15 31 21 128 24 46 2 52 0 52 -18z m2445 -81 c31 -74 35 -93
24 -100 -8 -5 -18 -7 -24 -6 -8 3 -84 171 -85 189 0 7 31 16 41 12 3 -2 23
-44 44 -95z m-1705 79 c0 -18 -31 -251 -35 -265 -3 -7 -46 6 -124 40 l-121 52
0 55 c0 30 -3 72 -6 93 l-7 37 147 0 c106 0 146 -3 146 -12z m-710 -68 l0 -40
-120 0 -120 0 0 40 0 40 120 0 120 0 0 -40z m266 -215 c23 -34 67 -110 96
-170 l53 -109 0 -176 c0 -201 -2 -209 -100 -354 -52 -79 -199 -246 -215 -246
-9 0 -50 145 -50 176 0 11 18 38 40 59 l40 39 0 319 0 318 -45 56 c-26 31 -44
63 -41 72 2 9 15 61 27 115 l23 99 64 -69 c36 -38 84 -96 108 -129z m-572 80
c14 -55 26 -103 26 -106 0 -4 -20 -33 -45 -65 l-45 -57 0 -317 0 -316 40 -39
c45 -44 47 -54 24 -152 -23 -103 -26 -105 -73 -53 -87 96 -152 190 -207 300
-53 107 -58 122 -65 210 -11 122 -2 241 23 308 28 74 122 211 214 310 42 46
78 81 80 80 2 -2 14 -49 28 -103z m771 0 c99 -42 184 -81 188 -85 17 -16 -87
-40 -172 -40 l-86 0 -85 107 c-47 59 -87 111 -89 116 -3 9 -8 11 244 -98z
m-947 77 c-7 -10 -47 -62 -88 -115 l-75 -96 -80 -1 c-63 0 -91 5 -130 24 l-50
23 50 22 c28 12 120 53 205 90 170 76 189 82 168 53z m527 -13 c14 -14 13 -28
-12 -152 l-27 -137 -127 0 -128 0 -6 48 c-4 26 -16 87 -27 135 -11 48 -17 94
-15 102 8 20 37 23 189 22 110 -2 140 -5 153 -18z m-2962 -49 c48 -28 121 -35
180 -17 l48 15 -3 -56 -3 -57 -129 -3 c-97 -2 -131 1 -138 10 -11 18 -10 128
1 128 6 0 25 -9 44 -20z m5667 -45 l0 -66 -137 3 -138 3 -3 48 c-3 50 1 53 45
36 52 -21 139 -14 186 15 23 14 43 25 45 26 1 0 2 -29 2 -65z m850 -347 c0
-150 3 -324 7 -385 l6 -113 -706 0 -706 0 -3 308 -3 307 75 78 75 77 627 0
628 0 0 -272z m-6021 188 l73 -73 -3 -299 c-1 -164 -4 -305 -7 -311 -3 -10
-153 -13 -705 -13 l-700 0 6 242 c4 133 7 306 7 385 l0 143 628 0 628 0 73
-74z m2155 -3 c14 -104 18 -470 7 -585 -15 -158 -15 -158 -62 -112 l-39 38 0
304 0 304 36 49 c20 27 39 49 44 49 4 0 10 -21 14 -47z m350 3 l36 -44 0 -309
0 -309 -39 -38 -38 -38 -6 29 c-33 156 -30 753 3 753 4 0 24 -20 44 -44z m-84
-95 l0 -40 -32 10 c-41 11 -121 11 -170 0 l-38 -9 0 39 0 39 120 0 120 0 0
-39z m-12 -53 c7 -7 12 -39 12 -75 0 -56 -2 -63 -20 -63 -15 0 -19 6 -17 23 2
17 -3 22 -20 20 -14 -2 -23 3 -23 11 0 8 -7 16 -15 20 -8 3 -15 1 -15 -4 0 -5
-13 -7 -30 -3 -23 4 -30 2 -30 -10 0 -10 -6 -13 -20 -10 -15 4 -20 0 -20 -15
0 -11 -7 -22 -15 -26 -12 -4 -15 6 -15 57 0 36 5 68 12 75 16 16 200 16 216 0z
m-652 -183 l1 -185 -118 0 c-110 0 -120 2 -146 24 -28 24 -28 26 -31 148 -4
185 8 198 183 198 l110 0 1 -185z m1404 165 c18 -18 20 -33 20 -160 0 -186 6
-180 -184 -180 l-141 0 -1 158 c-1 87 -5 168 -8 180 -7 22 -7 22 143 22 138 0
153 -2 171 -20z m701 -9 c17 -20 19 -40 19 -157 0 -120 -2 -136 -20 -154 -11
-11 -30 -22 -43 -25 -12 -4 -120 -5 -240 -3 -278 4 -262 -7 -262 184 l0 136
29 24 28 25 235 -3 c233 -3 235 -3 254 -27z m684 4 c24 -23 25 -29 25 -153 0
-116 -2 -132 -21 -156 l-20 -26 -244 0 -244 0 -20 26 c-19 24 -21 40 -21 156
0 124 1 130 25 153 l24 25 236 0 236 0 24 -25z m-3095 -161 l0 -125 -42 3 -43
3 -3 123 -3 122 46 0 45 0 0 -126z m1790 1 c0 -118 -1 -125 -20 -125 -19 0
-20 7 -20 125 0 118 1 125 20 125 19 0 20 -7 20 -125z m60 0 l0 -125 -25 0
-25 0 0 125 0 125 25 0 25 0 0 -125z m690 0 l0 -125 -47 0 -48 0 3 125 3 125
45 0 44 0 0 -125z m610 0 c0 -77 -4 -125 -10 -125 -6 0 -10 48 -10 125 0 77 4
125 10 125 6 0 10 -48 10 -125z m-3260 -5 c0 -73 -3 -90 -15 -90 -12 0 -15 16
-15 83 0 46 3 87 7 90 18 18 23 0 23 -83z m1002 53 c39 -35 11 -103 -43 -103
-51 0 -82 54 -55 95 20 30 70 34 98 8z m74 -50 c-10 -10 -19 5 -10 18 6 11 8
11 12 0 2 -7 1 -15 -2 -18z m-206 -53 c0 -12 7 -20 16 -20 9 0 22 -8 29 -17
11 -14 16 -15 28 -5 10 9 17 10 22 2 9 -15 35 -12 35 5 0 9 8 14 23 12 17 -2
22 3 20 21 -2 16 2 22 17 22 18 0 20 -7 20 -70 0 -66 -1 -71 -26 -80 -34 -13
-143 -13 -183 1 -31 11 -31 12 -31 80 0 55 3 69 15 69 8 0 15 -9 15 -20z m210
-177 l0 -33 -120 0 -120 0 0 33 0 32 120 0 120 0 0 -32z m15 -90 c6 -42 20
-115 42 -215 4 -23 1 -29 -21 -38 -43 -16 -287 -13 -312 4 l-20 14 23 114 c12
62 23 125 23 141 l0 27 129 0 130 0 6 -47z m2735 -122 l0 -81 -41 22 c-56 29
-126 34 -185 14 -26 -9 -49 -16 -51 -16 -5 0 -4 126 1 131 2 2 65 5 140 7
l136 3 0 -80z m-5442 2 c2 -35 -1 -63 -6 -63 -5 0 -26 7 -45 15 -50 21 -123
18 -176 -5 -24 -11 -44 -20 -45 -20 -6 0 -6 121 -1 130 4 7 57 10 138 8 l132
-3 3 -62z m2140 -66 c46 -59 83 -109 81 -111 -3 -3 -230 93 -384 163 l-50 23
40 19 c31 14 61 17 134 16 l94 -2 85 -108z m1167 93 l50 -18 -78 -36 c-130
-60 -359 -157 -363 -153 -2 1 37 53 87 115 l90 112 82 -1 c52 0 100 -7 132
-19z m-1385 -93 l95 -43 3 -97 3 -97 -141 0 -140 0 0 33 c0 17 7 79 15 137 8
58 15 110 15 117 0 14 16 9 150 -50z m1464 -83 c10 -75 16 -137 14 -139 -8 -7
-276 -15 -280 -8 -2 4 -1 48 2 97 l5 89 110 48 c61 27 115 49 121 49 6 0 18
-57 28 -136z m-3462 95 c65 -18 86 -45 124 -159 l34 -105 -23 -45 c-13 -26
-41 -58 -66 -75 -39 -27 -50 -30 -124 -30 -119 0 -133 12 -175 154 -36 118
-35 134 4 181 64 76 142 103 226 79z m5473 -23 c23 -12 54 -42 73 -70 28 -42
32 -57 32 -113 0 -131 -85 -217 -211 -215 -70 1 -125 27 -168 79 -44 53 -45
75 -8 193 29 92 37 107 66 124 69 40 144 41 216 2z m-5295 -103 c24 -76 28
-98 18 -104 -24 -15 -32 -3 -62 90 -26 79 -28 93 -16 101 8 5 18 10 22 10 4 0
21 -43 38 -97z m5030 81 c0 -3 -14 -50 -30 -104 -27 -85 -33 -97 -50 -93 -25
7 -25 9 7 115 23 78 29 88 50 88 12 0 23 -3 23 -6z m-2891 -110 c3 -2 -11 -36
-29 -75 -38 -78 -36 -77 -122 -39 -42 18 -46 23 -52 66 -3 26 -6 68 -6 94 l0
48 103 -45 c56 -25 104 -47 106 -49z m866 -1 c-4 -49 -10 -91 -14 -94 -8 -8
-111 -49 -122 -49 -10 0 -69 113 -69 133 0 11 177 95 203 97 5 0 6 -39 2 -87z
m-415 7 l0 -50 -120 0 -120 0 0 50 0 50 120 0 120 0 0 -50z m-3118 -14 c25
-26 78 -182 78 -231 0 -44 -46 -80 -142 -109 -100 -30 -109 -31 -147 -11 -31
15 -46 46 -80 162 -34 114 -15 146 109 186 101 34 150 34 182 3z m103 -91 c40
-133 40 -131 16 -138 -24 -6 -31 0 -31 27 0 18 -35 136 -55 188 -4 11 -1 18
12 20 10 3 21 2 25 -1 3 -3 18 -46 33 -96z m2682 40 l83 -44 123 -2 123 -2 88
46 c49 26 93 47 97 47 5 0 25 -31 44 -70 l35 -70 -67 -32 -68 -33 -232 -3
-232 -3 -78 32 c-43 18 -80 34 -82 36 -8 6 62 143 73 143 6 0 48 -20 93 -45z
m303 -15 c0 -19 -7 -20 -90 -20 -83 0 -90 1 -90 20 0 19 7 20 90 20 83 0 90
-1 90 -20z m-479 -97 l154 -68 222 -3 222 -3 166 70 167 71 144 0 144 0 0 -54
0 -53 -237 -61 c-131 -34 -260 -66 -286 -73 -48 -12 -49 -11 -83 22 l-35 34
-190 3 -189 3 -43 -30 -42 -30 -275 65 c-151 36 -276 67 -279 69 -8 9 -5 95 4
99 6 3 71 5 146 5 l136 1 154 -67z m-2931 34 c0 -11 49 -163 64 -198 5 -12 0
-18 -20 -23 -14 -4 -28 -5 -30 -3 -11 11 -65 211 -60 223 7 17 46 19 46 1z
m5546 -38 c30 -17 54 -32 54 -34 0 -4 -160 -55 -173 -55 -7 0 55 120 62 120 2
0 28 -14 57 -31z m-4678 -39 c18 -33 31 -64 28 -68 -3 -5 -45 -33 -93 -62 -48
-30 -98 -60 -110 -67 -20 -14 -23 -11 -61 54 l-40 68 50 6 c60 8 135 53 163
97 11 17 22 31 25 32 3 0 20 -27 38 -60z m314 3 c18 -32 35 -61 36 -66 4 -7
-156 48 -166 57 -3 4 85 65 95 66 0 0 16 -26 35 -57z m4784 -62 c21 -6 52 -11
67 -11 16 0 27 -3 25 -8 -13 -29 -62 -112 -67 -112 -3 0 -55 29 -116 63 -74
43 -110 69 -109 80 1 9 14 37 28 62 l27 45 53 -54 c34 -36 66 -58 92 -65z
m-6002 15 c31 -101 31 -98 4 -94 -17 2 -26 18 -46 76 -24 74 -24 102 2 102 10
0 23 -28 40 -84z m1386 -236 c60 -102 110 -192 110 -200 0 -8 -10 -61 -22
-118 l-22 -104 -504 -301 c-278 -166 -508 -302 -511 -301 -3 0 -97 151 -208
335 -134 223 -197 336 -190 341 7 4 239 144 517 311 l505 303 107 -40 108 -41
110 -185z m4347 236 c64 -37 452 -254 753 -421 107 -60 199 -112 203 -116 7
-6 -348 -657 -372 -682 -8 -8 -1029 555 -1047 578 -6 8 -19 61 -28 117 l-18
103 109 194 108 195 100 32 c55 18 108 32 117 33 9 1 43 -14 75 -33z m-503
-535 c9 -46 14 -86 12 -88 -6 -7 -96 40 -96 50 0 10 63 128 66 124 1 -1 9 -40
18 -86z m-3670 10 l27 -50 -38 -24 c-71 -44 -87 -51 -80 -34 3 8 13 51 23 96
19 91 24 92 68 12z m3969 -283 c48 -27 87 -52 87 -55 0 -3 -14 -30 -32 -61
l-31 -55 -15 29 c-33 66 -99 114 -174 128 l-36 7 25 44 25 45 31 -17 c18 -9
71 -38 120 -65z m-4147 24 c18 -30 21 -42 11 -42 -7 0 -36 -7 -64 -15 -54 -16
-110 -63 -135 -114 l-15 -32 -26 44 c-14 24 -27 50 -29 57 -3 12 208 150 225
147 4 -1 19 -21 33 -45z m3807 -126 c-78 -81 -79 -82 -98 -66 -12 10 -3 25 57
91 68 73 73 77 90 62 17 -15 15 -20 -49 -87z m-3610 22 c58 -64 64 -75 51 -88
-12 -13 -23 -5 -89 60 -57 57 -72 77 -63 87 19 23 35 14 101 -59z m3360 -123
c55 -94 137 -233 182 -310 45 -77 137 -234 205 -348 67 -115 120 -210 118
-212 -15 -15 -634 -368 -646 -369 -11 -1 -66 84 -172 264 -87 146 -210 355
-275 465 -65 110 -118 205 -118 210 0 6 14 47 32 91 l33 80 262 152 c143 83
265 150 270 149 5 -2 54 -79 109 -172z m483 156 c73 -33 124 -115 124 -201 0
-30 -11 -46 -87 -122 -81 -82 -90 -88 -128 -88 -86 0 -176 66 -204 149 -26 78
-18 101 70 195 l81 86 51 0 c29 0 70 -9 93 -19z m-3888 -75 c78 -79 82 -86 82
-127 -1 -92 -67 -179 -157 -205 -212 -62 -366 201 -209 357 40 41 85 59 147
59 l55 0 82 -84z m793 -172 c142 -85 259 -160 259 -165 0 -6 -85 -153 -189
-327 -103 -174 -239 -404 -301 -509 -62 -106 -117 -193 -122 -193 -10 0 -53
24 -395 225 -139 81 -253 152 -253 157 0 6 91 164 202 352 111 187 232 393
269 456 38 63 72 121 76 129 8 12 82 26 166 30 21 1 102 -43 288 -155z m-624
26 c35 -19 63 -39 63 -44 0 -14 -132 -236 -139 -232 -3 1 -35 20 -70 41 -59
35 -62 39 -45 52 72 52 113 119 114 186 0 21 3 37 8 35 4 -1 35 -19 69 -38z
m3403 -7 c0 -34 33 -103 63 -131 13 -12 41 -30 62 -41 l39 -19 -40 -24 c-84
-53 -71 -59 -146 69 -37 64 -68 117 -68 119 0 5 73 53 83 53 4 1 7 -11 7 -26z
m470 -38 c15 -14 9 -22 -69 -100 -81 -81 -85 -84 -103 -68 -18 16 -16 20 64
100 45 46 85 83 87 83 2 0 12 -7 21 -15z m175 -87 c74 -69 95 -102 95 -149 0
-28 -13 -46 -83 -116 -79 -78 -86 -83 -126 -83 -41 0 -48 5 -122 79 -74 74
-79 81 -79 122 0 40 5 47 83 126 78 77 86 83 125 83 37 0 48 -7 107 -62z
m-2151 -135 l168 -6 -6 -146 c-3 -80 -6 -386 -6 -679 l0 -532 -382 2 -383 3 2
43 c0 23 1 304 2 625 l1 583 77 57 77 57 141 0 c78 0 217 -3 309 -7z m2276
-68 c14 -17 19 -11 -97 -135 -49 -52 -52 -54 -71 -37 -18 16 -16 20 62 100 45
46 84 85 87 85 4 1 12 -5 19 -13z m38 -74 c-2 -5 -29 -37 -61 -71 -53 -57 -60
-61 -74 -47 -15 15 -11 22 43 80 48 52 62 62 77 55 10 -5 17 -13 15 -17z
m-3176 -66 c74 -24 84 -31 69 -53 -12 -19 -201 36 -201 59 0 34 7 34 132 -6z
m1661 -81 c38 -63 67 -117 65 -119 -10 -9 -124 -75 -130 -75 -5 0 -8 19 -8 43
0 57 -40 138 -84 172 l-37 28 53 33 c29 18 58 33 63 33 6 1 41 -51 78 -115z
m-1899 85 c20 -12 36 -23 36 -25 0 -2 -20 -22 -44 -44 -47 -44 -76 -107 -76
-167 l0 -33 -40 20 c-23 12 -43 27 -46 35 -6 15 116 235 131 235 2 0 20 -9 39
-21z m1650 4 c4 -9 3 -20 -1 -24 -8 -7 -194 -51 -199 -47 -1 2 -4 12 -6 22 -2
17 9 23 82 42 105 27 116 28 124 7z m-1438 -64 c97 -30 103 -33 125 -73 54
-95 18 -226 -77 -282 -222 -130 -446 163 -257 337 63 58 74 59 209 18z m1511
-9 c103 -76 116 -235 25 -323 -67 -65 -127 -79 -219 -52 -94 28 -165 140 -148
232 9 53 51 122 78 128 216 54 211 54 264 15z m-1239 -172 l3 -138 -82 0 c-77
0 -81 1 -67 18 38 44 49 145 23 209 -8 19 -15 40 -15 45 0 5 30 8 68 6 l67 -3
3 -137z m922 138 c0 -2 -9 -23 -20 -47 -29 -66 -25 -128 14 -219 5 -13 -4 -14
-59 -12 l-65 4 0 139 0 139 65 0 c36 0 65 -2 65 -4z m1583 -295 c15 -27 27
-51 27 -55 0 -7 -634 -386 -646 -386 -5 0 -24 25 -41 55 l-32 55 112 65 c62
36 207 121 322 189 116 68 215 124 220 125 6 1 22 -21 38 -48z m-3991 -97
c101 -58 246 -143 323 -187 77 -44 141 -82 143 -83 4 -3 -32 -74 -51 -98 -14
-19 -29 -11 -336 168 -177 104 -323 192 -326 195 -4 7 52 111 60 111 2 0 87
-48 187 -106z"/>
<path d="M3457 7353 c-4 -3 -7 -32 -7 -64 0 -49 3 -59 20 -64 18 -6 20 -15 20
-86 l0 -79 45 0 45 0 0 150 0 150 -58 0 c-32 0 -62 -3 -65 -7z m111 -145 l3
-138 -36 0 -35 0 0 85 c0 66 -3 85 -14 85 -15 0 -25 48 -18 87 4 22 9 24 51
21 l46 -3 3 -137z"/>
<path d="M3670 6800 l0 -420 95 0 95 0 0 420 0 420 -95 0 -95 0 0 -420z m180
0 l0 -400 -85 0 -85 0 0 400 0 400 85 0 85 0 0 -400z"/>
<path d="M3915 7207 c-3 -6 -4 -194 -3 -417 l3 -405 93 -3 92 -3 0 421 0 420
-90 0 c-63 0 -92 -4 -95 -13z m173 -404 l2 -403 -85 0 -85 0 0 399 c0 310 3
401 13 405 6 2 44 4 82 3 l70 -2 3 -402z"/>
<path d="M3472 6688 l3 -283 55 0 55 0 0 280 0 280 -58 3 -57 3 2 -283z m96 0
l-3 -273 -37 -3 -38 -3 0 275 0 276 40 0 40 0 -2 -272z"/>
<path d="M3510 6220 l0 -70 30 0 30 0 0 70 0 70 -30 0 -30 0 0 -70z m50 -5 c0
-48 -2 -55 -20 -55 -18 0 -20 7 -20 55 0 48 2 55 20 55 18 0 20 -7 20 -55z"/>
<path d="M3660 6260 c0 -27 3 -30 30 -30 27 0 30 3 30 30 0 27 -3 30 -30 30
-27 0 -30 -3 -30 -30z m50 0 c0 -13 -7 -20 -20 -20 -13 0 -20 7 -20 20 0 13 7
20 20 20 13 0 20 -7 20 -20z"/>
<path d="M4060 6260 c0 -27 3 -30 30 -30 27 0 30 3 30 30 0 27 -3 30 -30 30
-27 0 -30 -3 -30 -30z m50 0 c0 -13 -7 -20 -20 -20 -13 0 -20 7 -20 20 0 13 7
20 20 20 13 0 20 -7 20 -20z"/>
<path d="M3590 6249 c0 -27 3 -30 28 -27 21 2 28 9 30 31 3 24 0 27 -27 27
-28 0 -31 -3 -31 -31z m40 6 c0 -8 -7 -15 -15 -15 -8 0 -15 7 -15 15 0 8 7 15
15 15 8 0 15 -7 15 -15z"/>
<path d="M3660 6185 c0 -32 2 -35 30 -35 28 0 30 3 30 35 0 32 -2 35 -30 35
-28 0 -30 -3 -30 -35z m50 0 c0 -8 -9 -15 -20 -15 -11 0 -20 7 -20 15 0 8 9
15 20 15 11 0 20 -7 20 -15z"/>
<path d="M4060 6190 c0 -27 3 -30 30 -30 27 0 30 3 30 30 0 27 -3 30 -30 30
-27 0 -30 -3 -30 -30z m50 -5 c0 -8 -9 -15 -20 -15 -11 0 -20 7 -20 15 0 8 9
15 20 15 11 0 20 -7 20 -15z"/>
<path d="M3590 6179 c0 -27 3 -30 28 -27 21 2 28 9 30 31 3 24 0 27 -27 27
-28 0 -31 -3 -31 -31z m40 6 c0 -8 -7 -15 -15 -15 -8 0 -15 7 -15 15 0 8 7 15
15 15 8 0 15 -7 15 -15z"/>
<path d="M2222 6893 c-57 -35 -73 -50 -69 -64 6 -21 383 -667 402 -687 10 -11
26 -6 89 30 49 28 75 48 74 58 -4 19 -411 710 -418 709 -3 0 -38 -21 -78 -46z
m282 -320 c108 -182 196 -336 196 -341 0 -9 -114 -82 -128 -82 -4 0 -21 24
-38 53 -17 28 -106 178 -197 332 -91 154 -167 286 -169 292 -4 14 124 95 134
85 3 -4 95 -156 202 -339z"/>
<path d="M2017 6769 c-38 -23 -70 -46 -73 -53 -3 -9 390 -692 411 -714 6 -7
155 90 155 101 0 16 -405 700 -416 704 -5 1 -40 -16 -77 -38z m202 -192 c117
-199 219 -371 263 -444 l19 -31 -68 -41 c-53 -32 -70 -38 -79 -28 -24 26 -396
667 -392 677 3 11 107 78 123 79 6 1 66 -95 134 -212z"/>
<path d="M1823 6588 c-18 -11 -33 -25 -33 -31 0 -11 262 -462 276 -476 9 -9
95 42 92 55 -2 7 -64 116 -138 243 -83 142 -141 230 -150 230 -8 0 -30 -10
-47 -21z m188 -223 c71 -121 128 -223 126 -228 -1 -4 -16 -17 -33 -27 l-30
-19 -116 197 c-64 108 -126 214 -138 234 l-21 37 28 15 c15 9 34 14 41 13 8
-1 72 -101 143 -222z"/>
<path d="M2766 6137 c-17 -12 -17 -14 1 -36 17 -20 22 -22 41 -12 24 13 28 31
10 49 -15 15 -30 15 -52 -1z m36 -29 c-9 -9 -15 -9 -24 0 -10 10 -10 15 2 22
20 12 38 -6 22 -22z"/>
<path d="M2806 6077 c-16 -12 -17 -16 -5 -35 16 -25 28 -27 53 -9 15 11 17 17
7 35 -13 25 -29 28 -55 9z m36 -29 c-9 -9 -15 -9 -24 0 -10 10 -10 15 2 22 20
12 38 -6 22 -22z"/>
<path d="M2426 5935 c-16 -12 -18 -19 -8 -40 13 -29 21 -30 47 -11 17 12 18
18 7 40 -13 30 -19 31 -46 11z m37 -19 c6 -16 -19 -30 -28 -16 -7 11 2 30 15
30 4 0 10 -6 13 -14z"/>
<path d="M2366 5895 c-17 -13 -18 -18 -7 -41 8 -19 16 -24 29 -19 13 5 14 3 5
-6 -8 -8 -9 -18 -1 -35 13 -27 25 -29 52 -9 18 13 18 16 2 40 -9 14 -21 23
-26 20 -6 -3 -7 1 -4 9 6 15 -12 56 -24 56 -4 0 -16 -7 -26 -15z m26 -37 c-10
-10 -15 -10 -22 2 -6 9 -5 17 3 22 18 11 33 -10 19 -24z m44 -39 c10 -17 -13
-36 -27 -22 -12 12 -4 33 11 33 5 0 12 -5 16 -11z"/>
<path d="M2468 5876 c-37 -27 -8 -78 31 -56 24 12 26 28 7 53 -16 20 -16 20
-38 3z m24 -38 c-10 -10 -15 -10 -22 2 -6 9 -5 17 3 22 18 11 33 -10 19 -24z"/>
<path d="M2296 5855 c-19 -14 -19 -15 -1 -49 37 -68 50 -80 73 -67 29 15 28
27 -8 84 -33 51 -36 53 -64 32z m57 -47 c25 -43 26 -58 4 -58 -15 0 -60 77
-52 90 11 18 23 10 48 -32z"/>
<path d="M5057 6698 c-63 -106 -126 -214 -141 -240 l-27 -47 40 -27 c22 -14
46 -24 54 -21 9 3 228 365 284 469 4 9 -67 58 -84 58 -7 0 -64 -87 -126 -192z
m193 135 c0 -4 -166 -287 -252 -430 -20 -34 -26 -34 -72 0 -18 13 -13 24 99
213 65 109 126 213 137 231 l19 32 34 -21 c19 -11 35 -22 35 -25z"/>
<path d="M5180 6492 c-113 -190 -206 -353 -208 -361 -1 -11 24 -31 74 -60 74
-43 77 -44 91 -25 30 41 403 681 403 692 0 8 -78 60 -150 98 -3 1 -98 -153
-210 -344z m303 274 l47 -28 -27 -47 c-16 -26 -107 -181 -203 -344 -96 -163
-178 -297 -181 -297 -15 0 -129 73 -129 82 0 8 327 571 387 666 13 21 16 22
36 9 12 -7 43 -26 70 -41z"/>
<path d="M5476 6517 c-65 -111 -157 -267 -204 -345 -46 -79 -86 -151 -88 -160
-3 -12 17 -29 72 -61 64 -37 78 -42 88 -30 19 20 397 667 403 688 3 14 -13 28
-69 61 -40 24 -75 44 -78 46 -3 1 -59 -89 -124 -199z m255 85 c-50 -94 -394
-668 -401 -670 -15 -5 -130 68 -130 81 0 7 6 21 14 32 7 11 53 88 101 170 48
83 132 225 186 317 l99 167 70 -40 c57 -33 68 -44 61 -57z"/>
<path d="M4751 6060 c-37 -60 -37 -61 -10 -78 26 -16 36 -8 69 53 25 46 25 47
6 61 -29 20 -31 19 -65 -36z m61 24 c8 -7 -41 -94 -52 -94 -20 0 -20 23 1 60
21 37 38 48 51 34z"/>
<path d="M4834 6040 c-4 -16 -10 -30 -15 -30 -5 0 -13 -9 -19 -21 -13 -24 2
-49 30 -49 9 0 25 -9 35 -20 23 -26 41 -25 55 1 22 39 -29 68 -56 32 -15 -20
-19 -6 -5 16 7 10 4 19 -7 27 -15 12 -15 12 5 8 31 -8 53 34 27 53 -28 21 -44
15 -50 -17z m46 6 c0 -2 -3 -12 -6 -20 -5 -13 -9 -14 -20 -5 -16 13 -9 29 12
29 8 0 14 -2 14 -4z m-37 -63 c9 -9 -13 -34 -24 -27 -14 8 -11 34 4 34 8 0 17
-3 20 -7z m67 -43 c0 -13 -19 -22 -30 -15 -14 9 0 34 16 28 8 -3 14 -9 14 -13z"/>
<path d="M4900 6015 c-12 -22 -11 -27 6 -40 26 -19 29 -19 48 10 15 23 15 25
-6 40 -29 20 -32 19 -48 -10z m44 -3 c2 -4 1 -14 -4 -22 -7 -11 -12 -12 -21
-3 -6 6 -8 16 -5 22 8 13 23 14 30 3z"/>
<path d="M5249 5808 c-10 -18 -8 -24 7 -35 24 -18 30 -17 49 9 14 21 14 24 -2
35 -25 19 -41 16 -54 -9z m51 -9 c0 -12 -29 -24 -37 -16 -3 4 -3 13 0 21 6 16
37 11 37 -5z"/>
<path d="M5212 5745 c-10 -21 -9 -26 8 -35 28 -15 38 -12 51 12 10 18 8 24 -7
35 -26 19 -39 16 -52 -12z m48 -9 c0 -8 -4 -17 -8 -20 -13 -8 -35 11 -28 23
10 16 36 14 36 -3z"/>
<path d="M4465 6611 c-58 -25 -90 -109 -63 -161 23 -42 77 -72 121 -67 67 9
117 80 102 146 -13 62 -102 107 -160 82z m116 -40 c23 -23 29 -38 29 -71 0
-84 -87 -129 -158 -83 -33 21 -52 69 -41 107 21 77 114 102 170 47z"/>
<path d="M3012 6597 c-35 -20 -62 -68 -62 -110 0 -29 8 -46 34 -75 30 -32 40
-37 78 -37 55 0 95 25 115 73 18 44 6 96 -31 131 -30 28 -100 38 -134 18z
m129 -36 c22 -23 29 -39 29 -69 0 -113 -152 -142 -195 -38 -29 69 16 136 92
136 36 0 50 -6 74 -29z"/>
<path d="M1762 5887 c-75 -42 -77 -163 -3 -201 109 -57 218 52 161 159 -27 50
-106 70 -158 42z m108 -14 c39 -27 49 -45 50 -89 0 -30 -7 -48 -24 -67 -66
-71 -176 -28 -176 67 1 58 46 106 100 106 14 0 37 -8 50 -17z"/>
<path d="M5710 5862 c-95 -47 -83 -182 19 -213 76 -23 147 35 145 118 -1 49
-22 79 -71 99 -42 18 -51 18 -93 -4z m114 -23 c76 -60 32 -179 -66 -179 -56 0
-98 43 -98 100 0 84 97 132 164 79z"/>
<path d="M1426 5031 c-20 -32 -36 -65 -36 -72 0 -8 27 -29 59 -47 l60 -33 39
68 c22 37 38 71 36 75 -4 6 -110 68 -118 68 -3 0 -21 -26 -40 -59z m95 12 c27
-14 48 -29 47 -32 -24 -50 -66 -110 -75 -107 -6 3 -30 16 -52 30 l-40 26 32
55 c17 30 33 55 35 55 2 0 26 -12 53 -27z"/>
<path d="M5893 5259 c-29 -17 -53 -35 -53 -41 0 -17 71 -128 82 -128 22 0 118
65 113 77 -9 26 -75 123 -82 123 -5 0 -32 -14 -60 -31z m97 -40 c35 -57 35
-58 -32 -98 l-36 -21 -35 57 -35 58 41 27 c23 15 47 28 54 28 6 0 26 -23 43
-51z"/>
<path d="M1034 4620 c-11 -4 -33 -23 -48 -41 -24 -28 -27 -40 -23 -76 14 -127
179 -150 227 -32 38 91 -63 187 -156 149z m109 -30 c77 -61 34 -180 -65 -180
-56 0 -98 43 -98 100 0 84 97 132 163 80z"/>
<path d="M6404 4586 c-29 -29 -34 -41 -34 -81 0 -40 5 -52 34 -81 29 -29 41
-34 81 -34 40 0 52 5 81 34 29 29 34 41 34 81 0 40 -5 52 -34 81 -29 29 -41
34 -81 34 -40 0 -52 -5 -81 -34z m155 -11 c20 -20 26 -36 26 -70 0 -34 -6 -50
-26 -70 -67 -68 -179 -18 -179 79 0 28 34 74 64 87 33 14 88 2 115 -26z"/>
<path d="M4080 3885 l0 -85 70 0 70 0 0 85 0 85 -70 0 -70 0 0 -85z m130 -5
l0 -70 -60 0 -60 0 0 70 0 70 60 0 60 0 0 -70z"/>
<path d="M4080 3635 l0 -85 70 0 70 0 0 85 0 85 -70 0 -70 0 0 -85z m130 5 l0
-70 -60 0 -60 0 0 70 0 70 60 0 60 0 0 -70z"/>
<path d="M3442 3985 c-32 -65 -40 -120 -26 -173 5 -19 12 -23 38 -20 l31 3 3
128 c1 70 -1 127 -6 127 -4 0 -22 -29 -40 -65z m35 -77 c-2 -88 -3 -93 -24
-96 -22 -3 -23 0 -23 57 0 57 23 131 41 131 4 0 7 -42 6 -92z"/>
<path d="M3310 3865 l0 -65 45 0 45 0 0 65 0 65 -45 0 -45 0 0 -65z m80 0 c0
-54 0 -55 -30 -55 -30 0 -30 1 -30 55 0 54 0 55 30 55 30 0 30 -1 30 -55z"/>
<path d="M3416 3745 c-16 -43 -5 -116 26 -180 18 -36 36 -65 40 -65 5 0 7 57
6 128 l-3 127 -31 3 c-22 2 -33 -2 -38 -13z m59 -102 c0 -51 -2 -93 -6 -93
-16 0 -39 77 -39 131 0 57 1 60 23 57 21 -3 22 -7 22 -95z"/>
<path d="M3310 3685 l0 -65 45 0 45 0 0 65 0 65 -45 0 -45 0 0 -65z m70 0 c0
-54 0 -55 -30 -55 -30 0 -30 1 -30 55 0 54 0 55 30 55 30 0 30 -1 30 -55z"/>
<path d="M6380 4095 l0 -65 80 0 80 0 0 65 0 65 -80 0 -80 0 0 -65z m150 5 l0
-50 -70 0 -70 0 0 50 0 50 70 0 70 0 0 -50z"/>
<path d="M6634 4146 c-3 -8 -4 -31 -2 -52 l3 -39 393 -3 392 -2 0 55 0 55
-390 0 c-325 0 -392 -2 -396 -14z m776 -46 l0 -40 -379 0 c-413 0 -391 -3
-391 56 l0 24 385 0 385 0 0 -40z"/>
<path d="M6190 4060 l0 -30 70 0 70 0 0 30 0 30 -70 0 -70 0 0 -30z m120 0 c0
-17 -7 -20 -50 -20 -43 0 -50 3 -50 20 0 17 7 20 50 20 43 0 50 -3 50 -20z"/>
<path d="M6192 3983 c2 -22 9 -29 31 -31 24 -3 27 0 27 27 0 28 -3 31 -31 31
-27 0 -30 -3 -27 -27z m48 2 c0 -8 -7 -15 -15 -15 -8 0 -15 7 -15 15 0 8 7 15
15 15 8 0 15 -7 15 -15z"/>
<path d="M6262 3983 c2 -23 8 -29 36 -31 30 -3 32 -1 32 27 0 29 -3 31 -36 31
-33 0 -35 -2 -32 -27z m48 2 c0 -8 -7 -15 -15 -15 -8 0 -15 7 -15 15 0 8 7 15
15 15 8 0 15 -7 15 -15z"/>
<path d="M6430 3860 l0 -100 440 0 440 0 0 100 0 100 -440 0 -440 0 0 -100z
m870 -5 l0 -85 -430 0 -430 0 0 85 0 85 430 0 430 0 0 -85z"/>
<path d="M6190 3910 c0 -27 3 -30 30 -30 27 0 30 3 30 30 0 27 -3 30 -30 30
-27 0 -30 -3 -30 -30z m50 0 c0 -13 -7 -20 -20 -20 -13 0 -20 7 -20 20 0 13 7
20 20 20 13 0 20 -7 20 -20z"/>
<path d="M6260 3910 c0 -27 3 -30 30 -30 27 0 30 3 30 30 0 27 -3 30 -30 30
-27 0 -30 -3 -30 -30z m50 0 c0 -11 -7 -20 -15 -20 -8 0 -15 9 -15 20 0 11 7
20 15 20 8 0 15 -9 15 -20z"/>
<path d="M6430 3600 l0 -100 440 0 440 0 0 100 0 100 -440 0 -440 0 0 -100z
m870 0 l0 -90 -425 0 -425 0 0 90 0 90 425 0 425 0 0 -90z"/>
<path d="M6190 3510 c0 -27 3 -30 30 -30 27 0 30 3 30 30 0 27 -3 30 -30 30
-27 0 -30 -3 -30 -30z m50 0 c0 -13 -7 -20 -20 -20 -13 0 -20 7 -20 20 0 13 7
20 20 20 13 0 20 -7 20 -20z"/>
<path d="M6260 3510 c0 -27 3 -30 30 -30 27 0 30 3 30 30 0 27 -3 30 -30 30
-27 0 -30 -3 -30 -30z m50 0 c0 -13 -7 -20 -20 -20 -13 0 -20 7 -20 20 0 13 7
20 20 20 13 0 20 -7 20 -20z"/>
<path d="M964 4125 c-3 -8 -3 -26 0 -40 6 -25 8 -26 89 -23 l82 3 0 35 0 35
-83 3 c-67 2 -83 0 -88 -13z m164 -22 c-3 -15 -16 -19 -76 -21 -67 -3 -72 -1
-72 18 0 18 6 20 76 20 66 0 75 -2 72 -17z"/>
<path d="M280 4000 l0 -100 324 0 c202 0 326 4 328 10 2 5 2 50 0 100 l-3 90
-325 0 -324 0 0 -100z m630 -5 l0 -85 -310 0 -310 0 0 85 0 85 310 0 310 0 0
-85z"/>
<path d="M970 3985 l0 -46 53 3 52 3 0 40 0 40 -52 3 -53 3 0 -46z m98 8 c-3
-24 -8 -28 -40 -31 -36 -3 -38 -2 -38 27 0 30 2 31 41 31 38 0 40 -1 37 -27z"/>
<path d="M280 3760 l0 -100 325 0 324 0 6 33 c3 17 5 61 3 97 l-3 65 -327 3
-328 2 0 -100z m640 5 l0 -85 -315 0 -315 0 0 85 0 85 315 0 315 0 0 -85z"/>
<path d="M1080 3670 c0 -28 3 -31 28 -28 21 2 27 8 27 28 0 20 -6 26 -27 28
-25 3 -28 0 -28 -28z m50 0 c0 -13 -7 -20 -20 -20 -13 0 -20 7 -20 20 0 13 7
20 20 20 13 0 20 -7 20 -20z"/>
<path d="M1150 3670 c0 -27 3 -30 30 -30 27 0 30 3 30 30 0 27 -3 30 -30 30
-27 0 -30 -3 -30 -30z m50 0 c0 -13 -7 -20 -20 -20 -13 0 -20 7 -20 20 0 13 7
20 20 20 13 0 20 -7 20 -20z"/>
<path d="M1080 3601 c0 -28 3 -31 31 -31 27 0 30 3 27 28 -2 21 -9 28 -30 30
-25 3 -28 0 -28 -27z m50 -1 c0 -13 -7 -20 -20 -20 -13 0 -20 7 -20 20 0 13 7
20 20 20 13 0 20 -7 20 -20z"/>
<path d="M1150 3600 c0 -27 3 -30 30 -30 27 0 30 3 30 30 0 27 -3 30 -30 30
-27 0 -30 -3 -30 -30z m50 0 c0 -11 -7 -20 -15 -20 -8 0 -15 9 -15 20 0 11 7
20 15 20 8 0 15 -9 15 -20z"/>
<path d="M160 3485 l0 -55 115 0 115 0 0 55 0 55 -115 0 -115 0 0 -55z m220 5
l0 -40 -100 0 -100 0 0 40 0 40 100 0 100 0 0 -40z"/>
<path d="M422 3488 l3 -53 203 -3 202 -2 0 55 0 55 -206 0 -205 0 3 -52z m398
2 l0 -40 -190 0 -190 0 0 40 0 40 190 0 190 0 0 -40z"/>
<path d="M924 3527 c-3 -8 -4 -32 -2 -53 l3 -39 55 0 55 0 0 50 0 50 -53 3
c-38 2 -54 -1 -58 -11z m90 -13 c3 -9 6 -27 6 -40 0 -21 -4 -24 -40 -24 l-40
0 0 40 c0 39 1 40 34 40 22 0 36 -6 40 -16z"/>
<path d="M1080 3510 c0 -28 3 -31 28 -28 21 2 27 8 27 28 0 20 -6 26 -27 28
-25 3 -28 0 -28 -28z m38 -3 c2 -10 -3 -17 -12 -17 -10 0 -16 9 -16 21 0 24
23 21 28 -4z"/>
<path d="M1150 3511 c0 -28 3 -31 31 -31 27 0 30 3 27 28 -2 21 -9 28 -30 30
-25 3 -28 0 -28 -27z m50 -1 c0 -13 -7 -20 -20 -20 -13 0 -20 7 -20 20 0 13 7
20 20 20 13 0 20 -7 20 -20z"/>
<path d="M1008 3174 c-72 -39 -77 -149 -8 -201 46 -35 131 -19 164 32 21 32
24 91 7 124 -29 53 -108 75 -163 45z m92 -4 c22 0 70 -63 70 -91 0 -114 -148
-152 -196 -51 -13 29 -14 42 -5 72 14 48 69 85 109 74 8 -2 17 -4 22 -4z"/>
<path d="M6443 3175 c-56 -24 -88 -104 -61 -155 17 -32 74 -70 105 -70 38 0
87 27 106 59 33 56 16 119 -42 158 -39 26 -63 28 -108 8z m118 -34 c64 -65 20
-171 -71 -171 -33 0 -48 6 -71 29 -64 65 -20 171 71 171 33 0 48 -6 71 -29z"/>
<path d="M1563 2417 c-29 -17 -53 -35 -53 -39 0 -9 71 -127 79 -132 9 -6 121
63 121 74 0 16 -75 130 -85 130 -5 -1 -34 -15 -62 -33z m97 -34 c16 -27 30
-52 30 -58 0 -8 -57 -47 -91 -63 -7 -3 -69 99 -69 111 0 7 81 57 92 57 5 0 21
-21 38 -47z"/>
<path d="M6047 2698 c-8 -13 -26 -44 -40 -71 l-26 -47 37 -24 c60 -37 82 -47
92 -41 11 7 70 115 70 129 0 6 -27 26 -60 44 l-59 32 -14 -22z m67 -24 c25
-14 46 -30 46 -36 0 -15 -52 -108 -60 -108 -4 0 -28 12 -54 26 l-46 26 31 59
c18 32 33 59 34 59 1 0 23 -12 49 -26z"/>
<path d="M5230 1872 c-20 -16 -21 -21 -9 -40 16 -25 27 -27 52 -8 18 14 18 16
2 40 -21 31 -17 30 -45 8z m33 -17 c8 -18 -11 -31 -25 -17 -11 11 -3 32 12 32
4 0 10 -7 13 -15z"/>
<path d="M5260 1805 c-26 -31 18 -71 47 -43 12 12 13 20 4 37 -14 25 -34 27
-51 6z m38 -22 c-4 -22 -22 -20 -26 1 -2 10 3 16 13 16 10 0 15 -7 13 -17z"/>
<path d="M4876 1667 c-15 -11 -17 -17 -7 -35 13 -24 23 -27 51 -12 17 9 18 14
8 35 -13 28 -26 31 -52 12z m37 -22 c1 -5 -6 -11 -15 -13 -11 -2 -18 3 -18 13
0 17 30 18 33 0z"/>
<path d="M5255 1626 c-38 -24 -69 -47 -68 -52 1 -5 56 -101 122 -214 67 -113
158 -269 203 -347 46 -78 87 -142 92 -143 16 0 156 84 156 94 -1 22 -408 701
-421 703 -8 1 -45 -18 -84 -41z m130 -44 c265 -450 355 -606 355 -613 0 -9
-113 -79 -127 -79 -10 0 -398 650 -405 677 -3 12 105 82 127 83 6 0 28 -31 50
-68z"/>
<path d="M4807 1627 c-16 -11 -16 -14 -1 -35 10 -14 22 -21 31 -17 13 4 14 3
4 -9 -9 -11 -10 -20 -1 -35 12 -24 28 -26 53 -7 16 12 16 17 5 35 -7 12 -18
21 -25 21 -7 0 -10 7 -7 15 7 17 -12 45 -30 45 -7 0 -20 -6 -29 -13z m35 -29
c-10 -10 -15 -10 -22 2 -6 9 -5 17 3 22 18 11 33 -10 19 -24z m38 -62 c-7 -7
-14 -6 -22 2 -10 10 -10 15 2 22 17 11 34 -10 20 -24z"/>
<path d="M4915 1606 c-16 -12 -18 -18 -7 -40 10 -23 14 -25 37 -14 28 12 30
20 15 49 -13 23 -20 24 -45 5z m33 -23 c-5 -25 -28 -28 -28 -4 0 12 6 21 16
21 9 0 14 -7 12 -17z"/>
<path d="M4744 1596 c-19 -15 -18 -16 11 -70 31 -59 35 -62 66 -46 25 14 24
21 -12 80 -34 55 -36 56 -65 36z m54 -46 c26 -45 28 -60 8 -60 -15 0 -56 62
-56 86 0 27 25 14 48 -26z"/>
<path d="M5042 1503 l-73 -45 28 -47 c260 -445 390 -661 401 -661 17 0 152 81
152 91 0 8 -104 189 -307 532 -58 97 -110 177 -117 176 -6 0 -44 -21 -84 -46z
m114 -11 c11 -20 98 -169 193 -330 96 -161 174 -300 175 -308 2 -23 -120 -96
-132 -81 -6 7 -84 138 -174 292 -91 154 -179 304 -197 334 -18 29 -31 55 -29
56 12 12 125 75 133 75 6 0 19 -17 31 -38z"/>
<path d="M4942 1203 c-23 -14 -42 -29 -42 -34 0 -10 258 -449 275 -467 10 -12
18 -11 46 3 59 30 61 34 40 69 -10 17 -73 124 -141 239 -67 114 -125 209 -129
211 -3 2 -25 -7 -49 -21z m129 -135 c45 -79 107 -183 136 -232 30 -48 53 -89
51 -90 -32 -23 -55 -36 -64 -36 -10 0 -274 437 -274 454 0 5 59 46 67 46 1 0
39 -64 84 -142z"/>
<path d="M5663 1895 c-33 -33 -35 -38 -31 -87 7 -70 47 -108 114 -108 39 0 51
5 80 34 29 29 34 41 34 81 0 40 -5 52 -34 81 -29 29 -41 34 -81 34 -40 0 -52
-5 -82 -35z m147 -2 c22 -20 33 -40 37 -69 4 -35 1 -46 -23 -73 -21 -23 -41
-34 -70 -38 -35 -4 -46 -1 -73 23 -44 39 -52 97 -21 137 43 54 103 62 150 20z"/>
<path d="M1783 1923 c-31 -6 -79 -56 -86 -89 -18 -96 79 -170 167 -129 20 10
44 31 53 48 19 37 12 100 -14 129 -17 20 -74 49 -90 47 -4 -1 -18 -4 -30 -6z
m95 -38 c69 -58 43 -149 -51 -179 -25 -8 -81 17 -101 45 -44 64 6 159 84 159
27 0 48 -8 68 -25z"/>
<path d="M2322 1784 c-31 -53 -31 -57 -15 -70 10 -7 23 -14 28 -14 11 0 81
108 74 114 -6 5 -47 26 -51 26 -2 0 -18 -26 -36 -56z m63 26 c7 -11 -41 -90
-55 -90 -20 0 -18 18 6 58 25 42 38 50 49 32z"/>
<path d="M2410 1779 c-7 -11 -9 -28 -5 -37 3 -9 3 -13 -1 -9 -9 8 -44 -21 -44
-37 0 -6 9 -17 21 -24 17 -11 23 -11 37 0 14 11 15 10 9 -6 -5 -12 -1 -23 10
-32 26 -20 38 -17 51 11 10 21 8 27 -10 39 -17 12 -25 13 -37 3 -12 -10 -14
-9 -9 4 4 9 1 22 -5 28 -9 9 -8 11 5 6 13 -5 21 0 29 19 11 23 10 28 -7 41
-26 19 -31 19 -44 -6z m37 -14 c7 -20 0 -27 -20 -19 -9 3 -13 12 -10 20 7 19
22 18 30 -1z m-27 -65 c0 -5 -5 -12 -11 -16 -14 -8 -33 11 -25 25 7 11 36 4
36 -9z m60 -40 c0 -5 -5 -12 -11 -16 -14 -8 -33 11 -25 25 7 11 36 4 36 -9z"/>
<path d="M2470 1735 c-12 -22 -11 -27 6 -40 26 -19 29 -19 48 10 15 23 15 25
-6 40 -29 20 -32 19 -48 -10z m44 -3 c2 -4 1 -14 -4 -22 -7 -11 -12 -12 -21
-3 -6 6 -8 16 -5 22 8 13 23 14 30 3z"/>
<path d="M2157 1210 c-114 -193 -207 -354 -207 -358 1 -8 145 -92 157 -92 8 0
406 669 417 700 4 10 -15 27 -59 53 -35 21 -72 41 -83 44 -15 4 -53 -55 -225
-347z m334 269 c21 -16 20 -19 -176 -350 -108 -184 -200 -338 -205 -343 -13
-13 -142 65 -135 83 3 8 94 164 202 347 l197 333 48 -27 c26 -15 58 -34 69
-43z"/>
<path d="M2820 1531 c-15 -29 -13 -37 15 -49 23 -11 27 -9 37 14 11 22 9 28
-7 40 -25 19 -32 18 -45 -5z m38 -18 c-4 -22 -22 -20 -26 1 -2 10 3 16 13 16
10 0 15 -7 13 -17z"/>
<path d="M2066 1468 c-60 -94 -266 -453 -264 -460 2 -5 22 -20 44 -33 32 -19
44 -22 51 -12 8 9 255 424 280 469 3 6 -76 58 -90 58 -4 0 -13 -10 -21 -22z
m65 -15 c16 -10 28 -20 27 -23 -2 -4 -63 -108 -137 -233 l-133 -226 -28 14
c-16 8 -32 20 -35 25 -7 12 253 460 268 460 5 0 22 -8 38 -17z"/>
<path d="M2780 1465 c-12 -22 -11 -27 6 -40 27 -20 33 -19 46 11 11 22 10 28
-7 40 -26 19 -30 18 -45 -11z m43 -21 c-3 -8 -9 -14 -13 -14 -13 0 -22 19 -15
30 9 14 34 0 28 -16z"/>
<path d="M2523 1353 c-29 -49 -122 -207 -207 -352 -86 -146 -156 -268 -156
-273 0 -12 154 -99 161 -90 8 7 419 703 419 707 0 4 -155 95 -161 95 -3 0 -28
-39 -56 -87z m129 31 c35 -21 65 -38 67 -40 3 -2 -392 -679 -404 -692 -6 -6
-135 73 -135 82 0 5 32 64 71 130 40 67 123 209 186 316 132 224 142 240 148
240 2 0 32 -16 67 -36z"/>
<path d="M3500 1340 l0 -70 30 0 30 0 0 70 0 70 -30 0 -30 0 0 -70z m50 -5 c0
-48 -2 -55 -20 -55 -18 0 -20 7 -20 55 0 48 2 55 20 55 18 0 20 -7 20 -55z"/>
<path d="M3570 1370 c0 -28 3 -30 35 -30 32 0 35 2 35 30 0 28 -3 30 -35 30
-32 0 -35 -2 -35 -30z m50 0 c0 -11 -7 -20 -15 -20 -8 0 -15 9 -15 20 0 11 7
20 15 20 8 0 15 -9 15 -20z"/>
<path d="M3650 1370 c0 -27 3 -30 30 -30 27 0 30 3 30 30 0 27 -3 30 -30 30
-27 0 -30 -3 -30 -30z m50 0 c0 -13 -7 -20 -20 -20 -13 0 -20 7 -20 20 0 13 7
20 20 20 13 0 20 -7 20 -20z"/>
<path d="M4050 1370 c0 -27 3 -30 30 -30 27 0 30 3 30 30 0 27 -3 30 -30 30
-27 0 -30 -3 -30 -30z m50 0 c0 -13 -7 -20 -20 -20 -13 0 -20 7 -20 20 0 13 7
20 20 20 13 0 20 -7 20 -20z"/>
<path d="M3570 1301 c0 -29 3 -31 36 -31 33 0 35 2 32 28 -2 22 -8 28 -35 30
-31 3 -33 1 -33 -27z m50 -1 c0 -11 -7 -20 -15 -20 -8 0 -15 9 -15 20 0 11 7
20 15 20 8 0 15 -9 15 -20z"/>
<path d="M3650 1300 c0 -27 3 -30 30 -30 27 0 30 3 30 30 0 27 -3 30 -30 30
-27 0 -30 -3 -30 -30z m50 0 c0 -13 -7 -20 -20 -20 -13 0 -20 7 -20 20 0 13 7
20 20 20 13 0 20 -7 20 -20z"/>
<path d="M4050 1300 c0 -27 3 -30 30 -30 27 0 30 3 30 30 0 27 -3 30 -30 30
-27 0 -30 -3 -30 -30z m50 -5 c0 -8 -9 -15 -20 -15 -11 0 -20 7 -20 15 0 8 9
15 20 15 11 0 20 -7 20 -15z"/>
<path d="M3660 755 l0 -415 95 0 95 0 0 415 0 415 -95 0 -95 0 0 -415z m170 0
l0 -405 -80 0 -80 0 0 405 0 405 80 0 80 0 0 -405z"/>
<path d="M3900 755 l0 -415 95 0 95 0 0 415 0 415 -95 0 -95 0 0 -415z m178
-3 l2 -403 -82 3 -83 3 -3 390 c-1 214 0 396 3 403 3 9 26 12 82 10 l78 -3 3
-403z"/>
<path d="M3460 870 l0 -291 53 3 52 3 0 285 0 285 -52 3 -53 3 0 -291z m100 5
l0 -275 -45 0 -45 0 0 275 0 275 45 0 45 0 0 -275z"/>
<path d="M3480 415 c0 -78 -2 -85 -20 -85 -18 0 -20 -7 -20 -65 l0 -65 65 0
65 0 0 150 0 150 -45 0 -45 0 0 -85z m75 -65 l0 -135 -47 -3 -47 -3 -6 45 c-8
48 -2 66 21 66 11 0 14 18 14 86 l0 85 33 -3 32 -3 0 -135z"/>
<path d="M2998 1182 c-31 -18 -58 -67 -58 -104 0 -37 37 -88 77 -105 65 -27
142 14 160 85 3 13 0 42 -6 63 -21 70 -110 101 -173 61z m128 -25 c29 -26 36
-40 36 -69 0 -46 -16 -74 -52 -93 -37 -19 -63 -19 -100 0 -35 18 -50 43 -50
84 0 45 19 78 54 95 47 23 73 19 112 -17z"/>
<path d="M4438 1170 c-113 -88 4 -261 132 -195 74 38 78 150 8 199 -32 23
-109 21 -140 -4z m149 -25 c44 -50 26 -137 -33 -161 -47 -20 -87 -10 -119 28
-42 50 -27 135 29 159 37 16 99 3 123 -26z"/>
</g>
</svg>
